<svg width="42" height="41" viewBox="0 0 42 41" fill="none" xmlns="http://www.w3.org/2000/svg">
<g filter="url(#filter0_d_244_866)">
<rect x="6" y="2" width="30" height="30" rx="12" fill="white"/>
</g>
<g clip-path="url(#clip0_244_866)">
<path d="M16.5469 24.0312H15.6094C15.4229 24.0312 15.2441 23.9572 15.1122 23.8253C14.9803 23.6934 14.9062 23.5146 14.9062 23.3281V19.1094C14.9062 18.9229 14.9803 18.7441 15.1122 18.6122C15.2441 18.4803 15.4229 18.4062 15.6094 18.4062H16.5469C16.7334 18.4062 16.9122 18.4803 17.0441 18.6122C17.1759 18.7441 17.25 18.9229 17.25 19.1094V23.3281C17.25 23.5146 17.1759 23.6934 17.0441 23.8253C16.9122 23.9572 16.7334 24.0312 16.5469 24.0312V24.0312Z" fill="#CE0033"/>
<path d="M23.1094 24.0312H22.1719C21.9854 24.0312 21.8066 23.9572 21.6747 23.8253C21.5428 23.6934 21.4688 23.5146 21.4688 23.3281V16.2969C21.4688 16.1104 21.5428 15.9316 21.6747 15.7997C21.8066 15.6678 21.9854 15.5938 22.1719 15.5938H23.1094C23.2959 15.5938 23.4747 15.6678 23.6066 15.7997C23.7384 15.9316 23.8125 16.1104 23.8125 16.2969V23.3281C23.8125 23.5146 23.7384 23.6934 23.6066 23.8253C23.4747 23.9572 23.2959 24.0312 23.1094 24.0312V24.0312Z" fill="#CE0033"/>
<path d="M26.3906 24.0312H25.4531C25.2666 24.0312 25.0878 23.9572 24.9559 23.8253C24.8241 23.6934 24.75 23.5146 24.75 23.3281V13.0156C24.75 12.8291 24.8241 12.6503 24.9559 12.5184C25.0878 12.3866 25.2666 12.3125 25.4531 12.3125H26.3906C26.5771 12.3125 26.7559 12.3866 26.8878 12.5184C27.0197 12.6503 27.0937 12.8291 27.0937 13.0156V23.3281C27.0937 23.5146 27.0197 23.6934 26.8878 23.8253C26.7559 23.9572 26.5771 24.0312 26.3906 24.0312V24.0312Z" fill="#CE0033"/>
<path d="M19.8281 24.0312H18.8906C18.7041 24.0312 18.5253 23.9572 18.3934 23.8253C18.2616 23.6934 18.1875 23.5146 18.1875 23.3281V10.6719C18.1875 10.4854 18.2616 10.3066 18.3934 10.1747C18.5253 10.0428 18.7041 9.96875 18.8906 9.96875H19.8281C20.0146 9.96875 20.1934 10.0428 20.3253 10.1747C20.4572 10.3066 20.5312 10.4854 20.5312 10.6719V23.3281C20.5312 23.5146 20.4572 23.6934 20.3253 23.8253C20.1934 23.9572 20.0146 24.0312 19.8281 24.0312V24.0312Z" fill="#CE0033"/>
</g>
<defs>
<filter id="filter0_d_244_866" x="0.5" y="-2.38419e-07" width="41" height="41" filterUnits="userSpaceOnUse" color-interpolation-filters="sRGB">
<feFlood flood-opacity="0" result="BackgroundImageFix"/>
<feColorMatrix in="SourceAlpha" type="matrix" values="0 0 0 0 0 0 0 0 0 0 0 0 0 0 0 0 0 0 127 0" result="hardAlpha"/>
<feOffset dy="3.5"/>
<feGaussianBlur stdDeviation="2.75"/>
<feColorMatrix type="matrix" values="0 0 0 0 0 0 0 0 0 0 0 0 0 0 0 0 0 0 0.2 0"/>
<feBlend mode="normal" in2="BackgroundImageFix" result="effect1_dropShadow_244_866"/>
<feBlend mode="normal" in="SourceGraphic" in2="effect1_dropShadow_244_866" result="shape"/>
</filter>
<clipPath id="clip0_244_866">
<rect width="15" height="15" fill="white" transform="translate(13.5 9.5)"/>
</clipPath>
</defs>
</svg>
