<svg width="42" height="41" viewBox="0 0 42 41" fill="none" xmlns="http://www.w3.org/2000/svg">
<g filter="url(#filter0_d_87_9998)">
<rect x="6" y="2" width="30" height="30" rx="12" fill="white"/>
</g>
<path d="M20.7908 9.06501C20.7472 9.02329 20.6892 9 20.6288 9C20.5684 9 20.5104 9.02329 20.4668 9.06501L15.0732 14.2175C15.0503 14.2394 15.0321 14.2657 15.0197 14.2948C15.0072 14.324 15.0008 14.3554 15.0009 14.3871L15 19.2228C15 19.4715 15.0988 19.7099 15.2746 19.8857C15.4504 20.0615 15.6889 20.1603 15.9375 20.1603H18.7529C18.8772 20.1603 18.9965 20.1109 19.0844 20.023C19.1723 19.9351 19.2217 19.8159 19.2217 19.6916V15.7072C19.2217 15.645 19.2464 15.5854 19.2903 15.5415C19.3343 15.4975 19.3939 15.4728 19.4561 15.4728H21.7998C21.862 15.4728 21.9216 15.4975 21.9655 15.5415C22.0095 15.5854 22.0342 15.645 22.0342 15.7072V19.6916C22.0342 19.8159 22.0836 19.9351 22.1715 20.023C22.2594 20.1109 22.3786 20.1603 22.5029 20.1603H25.3172C25.5658 20.1603 25.8043 20.0615 25.9801 19.8857C26.1559 19.7099 26.2547 19.4715 26.2547 19.2228V14.3871C26.2547 14.3554 26.2483 14.324 26.2359 14.2948C26.2234 14.2657 26.2052 14.2394 26.1823 14.2175L20.7908 9.06501Z" fill="#CE0033"/>
<defs>
<filter id="filter0_d_87_9998" x="0.5" y="-2.38419e-07" width="41" height="41" filterUnits="userSpaceOnUse" color-interpolation-filters="sRGB">
<feFlood flood-opacity="0" result="BackgroundImageFix"/>
<feColorMatrix in="SourceAlpha" type="matrix" values="0 0 0 0 0 0 0 0 0 0 0 0 0 0 0 0 0 0 127 0" result="hardAlpha"/>
<feOffset dy="3.5"/>
<feGaussianBlur stdDeviation="2.75"/>
<feColorMatrix type="matrix" values="0 0 0 0 0 0 0 0 0 0 0 0 0 0 0 0 0 0 0.2 0"/>
<feBlend mode="normal" in2="BackgroundImageFix" result="effect1_dropShadow_87_9998"/>
<feBlend mode="normal" in="SourceGraphic" in2="effect1_dropShadow_87_9998" result="shape"/>
</filter>
</defs>
</svg>
