<svg width="42" height="41" viewBox="0 0 42 41" fill="none" xmlns="http://www.w3.org/2000/svg">
<g filter="url(#filter0_d_87_10025)">
<rect x="6" y="2" width="30" height="30" rx="12" fill="white"/>
</g>
<path d="M17.4473 11.8175C18.3316 11.8175 19.0485 11.1007 19.0485 10.2164C19.0485 9.33209 18.3316 8.61523 17.4473 8.61523C16.563 8.61523 15.8462 9.33209 15.8462 10.2164C15.8462 11.1007 16.563 11.8175 17.4473 11.8175Z" fill="#DB1313"/>
<path d="M20.7027 25.7232L20.1176 21.4251C20.1089 21.3615 20.0934 21.2989 20.0713 21.2386L19.2356 18.9603V17.0712C18.6521 17.3529 17.9548 17.1107 17.6693 16.5315L16.5156 14.1839L18.1468 16.1314C18.4903 16.5414 19.1449 16.4397 19.3499 15.9484L20.4778 13.2449C20.6292 12.882 20.4578 12.465 20.0949 12.3136C19.732 12.1621 19.3149 12.3337 19.1635 12.6965L18.4865 14.3191L17.6073 13.2695L18.0989 13.6302L18.6315 12.3587H16.2252C15.7096 12.3587 15.2786 12.7196 15.1702 13.2025V13.0846C15.1702 12.4187 14.6304 11.8789 13.9645 11.8789C13.2987 11.8789 12.7589 12.4187 12.7589 13.0846V14.6974H12.4191C12.1876 14.6974 12 14.885 12 15.1165V16.4575C12 16.689 12.1876 16.8766 12.4191 16.8766H12.7589C12.7589 17.704 13.3985 18.2637 14.1118 18.2637H15.1436V18.9896H15.1445L15.029 21.7492L13.482 25.5043C13.2947 25.9588 13.5113 26.479 13.9659 26.6663C14.4205 26.8536 14.9407 26.6368 15.1279 26.1824L16.7348 22.2823C16.7743 22.1863 16.7968 22.0841 16.8011 21.9804C16.9338 18.8098 16.9253 19.0251 16.9253 18.9896H17.3502L18.3667 21.761L18.9387 25.9634C19.0051 26.4509 19.4543 26.7916 19.9407 26.7252C20.4279 26.6588 20.769 26.2102 20.7027 25.7232Z" fill="#DB1313"/>
<path d="M26.69 10.2023C27.5743 10.2023 28.2911 9.48542 28.2911 8.60113C28.2911 7.71685 27.5743 7 26.69 7C25.8057 7 25.0889 7.71685 25.0889 8.60113C25.0889 9.48542 25.8057 10.2023 26.69 10.2023Z" fill="#DB1313"/>
<path d="M29.9456 24.1079L29.3605 19.8098C29.3519 19.7462 29.3364 19.6837 29.3143 19.6234L28.4786 17.3451V16.5892C28.1585 16.4874 26.3191 15.9026 25.9491 15.7849C25.5121 15.6459 25.2455 15.2207 25.2897 14.7819L25.5501 12.1792L25.9066 14.6945C25.945 14.9653 26.1351 15.1902 26.3958 15.2731L28.7304 16.0154C29.105 16.1346 29.5055 15.9275 29.6247 15.5526C29.7438 15.1778 29.5366 14.7774 29.1619 14.6583L27.2538 14.0515L26.9601 11.9794L27.5689 13.498L28.4786 13.7873V11.8251C28.4786 11.2278 27.9944 10.7435 27.397 10.7435H25.4682C24.9526 10.7435 24.5216 11.1044 24.4132 11.5873V11.4693C24.4132 10.8035 23.8734 10.2637 23.2075 10.2637C22.5416 10.2637 22.0019 10.8034 22.0019 11.4693V13.4561H21.6852C21.4537 13.4561 21.2661 13.6437 21.2661 13.8751V15.0426C21.2661 15.274 21.4537 15.4617 21.6852 15.4617H22.0124C22.0944 16.1304 22.6639 16.6484 23.3548 16.6484H24.3866V17.3743H24.3875L24.272 20.1339L22.725 23.889C22.5377 24.3435 22.7544 24.8637 23.2088 25.051C23.6638 25.2384 24.1838 25.0212 24.3709 24.5671L25.9777 20.667C26.0173 20.571 26.0397 20.4689 26.044 20.3652C26.1768 17.1941 26.1683 17.41 26.1683 17.3744H26.5931L27.6096 20.1457L28.1817 24.3481C28.248 24.8357 28.6972 25.1763 29.1836 25.11C29.6708 25.0436 30.012 24.595 29.9456 24.1079Z" fill="#DB1313"/>
<defs>
<filter id="filter0_d_87_10025" x="0.5" y="-2.38419e-07" width="41" height="41" filterUnits="userSpaceOnUse" color-interpolation-filters="sRGB">
<feFlood flood-opacity="0" result="BackgroundImageFix"/>
<feColorMatrix in="SourceAlpha" type="matrix" values="0 0 0 0 0 0 0 0 0 0 0 0 0 0 0 0 0 0 127 0" result="hardAlpha"/>
<feOffset dy="3.5"/>
<feGaussianBlur stdDeviation="2.75"/>
<feColorMatrix type="matrix" values="0 0 0 0 0 0 0 0 0 0 0 0 0 0 0 0 0 0 0.2 0"/>
<feBlend mode="normal" in2="BackgroundImageFix" result="effect1_dropShadow_87_10025"/>
<feBlend mode="normal" in="SourceGraphic" in2="effect1_dropShadow_87_10025" result="shape"/>
</filter>
</defs>
</svg>
