<svg width="47" height="41" viewBox="0 0 47 41" fill="none" xmlns="http://www.w3.org/2000/svg">
<g filter="url(#filter0_d_87_10009)">
<rect x="11" y="2" width="30" height="30" rx="12" fill="white"/>
</g>
<path fill-rule="evenodd" clip-rule="evenodd" d="M17 8H29.0557V10.4998H28.2779V8.99992H17.7778V20.499H26.095V21.4989H17V8ZM28.6668 14.4995C28.9762 14.4995 29.2729 14.3415 29.4917 14.0602C29.7105 13.7789 29.8335 13.3974 29.8335 12.9996C29.8335 12.6018 29.7105 12.2203 29.4917 11.939C29.2729 11.6577 28.9762 11.4997 28.6668 11.4997C28.3574 11.4997 28.0606 11.6577 27.8418 11.939C27.623 12.2203 27.5001 12.6018 27.5001 12.9996C27.5001 13.3974 27.623 13.7789 27.8418 14.0602C28.0606 14.3415 28.3574 14.4995 28.6668 14.4995ZM29.4566 15.5044C29.9618 15.5044 30.3616 15.7964 30.6233 16.2473C30.8679 16.6698 30.9714 17.1923 30.9947 17.6747C31.0178 18.1696 30.9654 18.6656 30.8403 19.1346C30.7236 19.5696 30.5265 20.0195 30.2223 20.328V25.2486C30.2226 25.437 30.1677 25.6187 30.0686 25.7574C29.9694 25.8962 29.8333 25.9819 29.6872 25.9974C29.5411 26.013 29.3959 25.9573 29.2803 25.8414C29.1647 25.7256 29.0873 25.558 29.0634 25.3721L28.5618 21.4989H28.4459L27.8789 25.3866C27.852 25.5701 27.7728 25.7341 27.6568 25.8465C27.5408 25.9588 27.3964 26.0116 27.2517 25.9943C27.1071 25.9771 26.9727 25.8911 26.8748 25.7532C26.7769 25.6152 26.7225 25.4353 26.7223 25.2486V18.1157C26.6445 18.268 26.5678 18.4211 26.4921 18.5752L26.4618 18.6366L26.454 18.6526L26.452 18.6571C26.3996 18.7653 26.3266 18.8546 26.2399 18.9164C26.1532 18.9783 26.0557 19.0107 25.9566 19.0106H24.0121C23.8574 19.0106 23.709 18.9316 23.5996 18.791C23.4902 18.6503 23.4288 18.4596 23.4288 18.2607C23.4288 18.0618 23.4902 17.871 23.5996 17.7304C23.709 17.5897 23.8574 17.5107 24.0121 17.5107H25.6365C25.731 17.3228 25.8555 17.0788 25.9861 16.8338C26.1223 16.5783 26.2724 16.3078 26.4061 16.0959C26.4711 15.9924 26.5438 15.8844 26.6169 15.7959C26.6527 15.7524 26.7025 15.6959 26.7631 15.6459C26.87 15.555 26.9951 15.506 27.1233 15.5049L29.4566 15.5044Z" fill="#CE0033"/>
<defs>
<filter id="filter0_d_87_10009" x="5.5" y="-2.38419e-07" width="41" height="41" filterUnits="userSpaceOnUse" color-interpolation-filters="sRGB">
<feFlood flood-opacity="0" result="BackgroundImageFix"/>
<feColorMatrix in="SourceAlpha" type="matrix" values="0 0 0 0 0 0 0 0 0 0 0 0 0 0 0 0 0 0 127 0" result="hardAlpha"/>
<feOffset dy="3.5"/>
<feGaussianBlur stdDeviation="2.75"/>
<feColorMatrix type="matrix" values="0 0 0 0 0 0 0 0 0 0 0 0 0 0 0 0 0 0 0.2 0"/>
<feBlend mode="normal" in2="BackgroundImageFix" result="effect1_dropShadow_87_10009"/>
<feBlend mode="normal" in="SourceGraphic" in2="effect1_dropShadow_87_10009" result="shape"/>
</filter>
</defs>
</svg>
