<svg width="20" height="14" viewBox="0 0 20 14" fill="none" xmlns="http://www.w3.org/2000/svg">
<path d="M13.6364 6.01508C15.1455 6.01508 16.3545 4.73212 16.3545 3.14279C16.3545 1.55346 15.1455 0.270508 13.6364 0.270508C12.1273 0.270508 10.9091 1.55346 10.9091 3.14279C10.9091 4.73212 12.1273 6.01508 13.6364 6.01508ZM6.36364 6.01508C7.87273 6.01508 9.08182 4.73212 9.08182 3.14279C9.08182 1.55346 7.87273 0.270508 6.36364 0.270508C4.85455 0.270508 3.63636 1.55346 3.63636 3.14279C3.63636 4.73212 4.85455 6.01508 6.36364 6.01508ZM6.36364 7.92994C4.24545 7.92994 0 9.05013 0 11.2809V13.6745H12.7273V11.2809C12.7273 9.05013 8.48182 7.92994 6.36364 7.92994ZM13.6364 7.92994C13.3727 7.92994 13.0727 7.94909 12.7545 7.97781C13.8091 8.78205 14.5455 9.86394 14.5455 11.2809V13.6745H20V11.2809C20 9.05013 15.7545 7.92994 13.6364 7.92994Z" fill="#CE0033"/>
</svg>
