<svg width="13" height="15" viewBox="0 0 13 15" fill="none" xmlns="http://www.w3.org/2000/svg">
<path d="M10.8333 12.9572C11.1313 12.9572 11.375 12.7561 11.375 12.5104V4.468H8.66667C8.06745 4.468 7.58333 4.06867 7.58333 3.5744V1.3404H2.16667C1.86875 1.3404 1.625 1.54146 1.625 1.7872V12.5104C1.625 12.7561 1.86875 12.9572 2.16667 12.9572H10.8333ZM0 1.7872C0 0.801448 0.971615 0 2.16667 0H7.76953C8.34505 0 8.89688 0.187098 9.30313 0.522197L12.3669 3.04941C12.7732 3.38451 13 3.83969 13 4.31441V12.5104C13 13.4962 12.0284 14.2976 10.8333 14.2976H2.16667C0.971615 14.2976 0 13.4962 0 12.5104V1.7872Z" fill="#CE0033"/>
</svg>
